<svg width="175" height="74" viewBox="0 0 175 74" fill="none" xmlns="http://www.w3.org/2000/svg">
<path d="M75.8696 37.1405L81.6738 9.76797H87.3491L84.571 23.4027L75.8696 37.1405Z" fill="#D6BA06"/>
<path d="M100.228 37.1405L93.1813 17.6975L89.0637 37.1405H83.7415L89.5458 9.76797H95.5358L102.361 28.8756L106.422 9.76797H111.744L105.94 37.1405H100.228Z" fill="#D6BA06"/>
<path d="M115.781 27.9866L113.853 37.1425H108.234L114.038 9.76996H119.657L117.264 21.041L130.208 9.76996H137.588L123.994 21.041L132.359 37.1404H125.015L119.1 25.1805L115.781 27.9846V27.9866Z" fill="#D6BA06"/>
<path d="M118.43 42.5509C119.754 43.963 120.105 46.1469 119.487 49.1066C118.795 52.337 117.49 54.6219 115.575 55.9593C113.659 57.2968 111.187 57.9655 108.157 57.9655H102.353L100.277 67.8082H94.6016L100.406 40.4357H112.311C115.055 40.4357 117.095 41.1407 118.43 42.5529V42.5509ZM110.382 45.1873H105.06L103.353 53.2461H108.676C110.023 53.2461 111.143 52.9189 112.033 52.2623C112.922 51.6057 113.516 50.5673 113.812 49.143C114.121 47.7187 113.963 46.7045 113.34 46.0985C112.715 45.4924 111.73 45.1893 110.382 45.1893V45.1873Z" fill="#D6BA06"/>
<path d="M141.607 63.9939L142.108 61.4503C142.453 59.7048 142.382 58.5412 141.894 57.9593C141.406 57.3775 140.32 57.0866 138.64 57.0866H132.742L130.481 67.8202H124.898L130.703 40.4477H144.111C146.016 40.4841 147.436 40.7205 148.376 41.1528C149.316 41.5872 150.057 42.2235 150.601 43.066C151.047 43.7589 151.352 44.5266 151.519 45.3691C151.687 46.2115 151.658 47.1712 151.436 48.2479C151.152 49.547 150.549 50.8258 149.629 52.0824C148.707 53.339 147.438 54.2279 145.818 54.7471C146.968 55.2542 147.706 55.9754 148.033 56.9108C148.36 57.8462 148.319 59.2725 147.912 61.1918L147.523 63.0302C147.262 64.2807 146.55 67.7273 146.55 67.7273L140.901 67.8202C140.901 67.7273 141.446 64.7999 141.607 63.9939ZM141.904 45.2014H135.264L133.707 52.5551H140.179C141.464 52.5551 142.461 52.4056 143.165 52.1087C144.414 51.5895 145.204 50.5611 145.539 49.0257C145.884 47.3671 145.57 46.2519 144.593 45.6842C144.036 45.363 143.141 45.2014 141.904 45.2014Z" fill="#D6BA06"/>
<path d="M117.038 67.8242L122.843 40.4517H128.518L125.74 54.0864L117.038 67.8242Z" fill="#D6BA06"/>
<path d="M84.625 51.1389L89.0937 52.2722C91.0466 52.7672 92.4629 53.4298 93.3405 54.2581C94.7003 55.545 95.1199 57.4097 94.6014 59.8482C94.0708 62.3493 92.6727 64.4261 90.4111 66.0787C88.1495 67.7312 85.2746 68.5575 81.7884 68.5575C78.3022 68.5575 75.6007 67.7434 73.906 66.115C72.2114 64.4867 71.6687 62.2503 72.2739 59.4017H77.7252C77.6384 60.6523 77.7816 61.5876 78.1508 62.2058C78.8428 63.3331 80.3137 63.8968 82.5652 63.8968C83.9128 63.8968 85.0366 63.7473 85.9404 63.4503C87.6593 62.8806 88.6781 61.822 89.0009 60.2745C89.1986 59.3714 88.9504 58.6724 88.2585 58.1754C87.5786 57.6926 86.4286 57.2663 84.8085 56.8946L82.0446 56.2441C79.3372 55.5996 77.5194 54.9006 76.5934 54.145C75.0238 52.8823 74.5234 50.9085 75.0903 48.2216C75.6088 45.771 76.9323 43.7346 79.0587 42.1123C81.1851 40.4901 83.9733 39.6799 87.4232 39.6799C90.3042 39.6799 92.5981 40.4456 94.3028 41.9729C96.0096 43.5023 96.6028 45.7205 96.0823 48.6297H90.5927C90.853 46.9832 90.3889 45.8135 89.2027 45.1205C88.4118 44.6619 87.3546 44.4336 86.0311 44.4336C84.5604 44.4336 83.3197 44.7306 82.313 45.3246C81.3042 45.9185 80.6908 46.7488 80.4669 47.8135C80.2571 48.7913 80.5355 49.5227 81.3022 50.0055C81.7843 50.3267 82.89 50.7045 84.621 51.1389H84.625Z" fill="#D6BA06"/>
<path d="M170.098 62.822L169.063 67.7252H148.424L154.208 40.4517H174.183L173.148 45.2801H158.735L157.517 51.0722H170.748L169.731 55.8097H156.5L155.021 62.822H170.1H170.098Z" fill="#D6BA06"/>
<path d="M45.3854 38.2456L72.7102 41.7973L44.0982 45.3509L32.5118 74.0002L37.0048 45.3509L8.39282 41.7973L38.29 38.2456L48.5811 9.59431L45.3854 38.2456Z" fill="#D6BA06"/>
<path d="M47.3804 34.4009L64.3172 32.2978L47.8727 30.1968L47.3804 34.4009Z" fill="#D6BA06"/>
<path d="M27.0687 45.6882L24.1191 64.5009L31.5052 46.2397L27.0687 45.6882Z" fill="#D6BA06"/>
<path d="M28.2851 37.9303L35.197 37.1081L35.7074 35.8495L37.737 35.5969L40.1439 29.1079L36.9926 28.7442L40.1883 0.0949326L29.8971 28.7442L0 32.2979L28.612 35.8495L28.2851 37.9303Z" fill="#D6BA06"/>
</svg>
