<svg width="430" height="183" viewBox="0 0 430 183" fill="none" xmlns="http://www.w3.org/2000/svg">
<path d="M187.296 91.4026L201.625 23.9153H215.635L208.777 57.5319L187.296 91.4026Z" fill="#D6BA06"/>
<path d="M247.431 91.4026L230.034 43.4657L219.869 91.4026H206.73L221.059 23.9153H235.846L252.695 71.0254L262.721 23.9153H275.859L261.53 91.4026H247.431Z" fill="#D6BA06"/>
<path d="M285.825 68.8331L281.064 91.4069H267.193L281.522 23.9196H295.393L289.486 51.7085L321.441 23.9196H339.659L306.101 51.7085L326.75 91.4019H308.621L294.018 61.9145L285.825 68.8281V68.8331Z" fill="#D6BA06"/>
<path d="M292.365 104.742C295.632 108.224 296.498 113.608 294.974 120.905C293.266 128.87 290.044 134.503 285.317 137.801C280.586 141.098 274.485 142.747 267.004 142.747H252.675L247.55 167.014H233.54L247.869 99.5269H277.259C284.032 99.5269 289.068 101.265 292.365 104.747V104.742ZM272.497 111.242H259.359L255.146 131.111H268.284C271.611 131.111 274.375 130.304 276.572 128.686C278.768 127.067 280.232 124.507 280.964 120.995C281.726 117.483 281.338 114.983 279.799 113.489C278.255 111.994 275.824 111.247 272.497 111.247V111.242Z" fill="#D6BA06"/>
<path d="M349.58 157.61L350.815 151.339C351.666 147.035 351.492 144.166 350.287 142.732C349.081 141.297 346.402 140.58 342.253 140.58H327.695L322.112 167.044H308.331L322.66 99.5565H355.76C360.462 99.6462 363.968 100.229 366.289 101.295C368.61 102.366 370.438 103.935 371.783 106.012C372.883 107.72 373.635 109.613 374.049 111.69C374.462 113.767 374.392 116.133 373.844 118.788C373.142 121.991 371.653 125.144 369.382 128.242C367.106 131.34 363.973 133.532 359.974 134.812C362.813 136.062 364.636 137.84 365.442 140.146C366.249 142.453 366.15 145.969 365.144 150.701L364.182 155.234C363.54 158.317 361.782 166.815 361.782 166.815L347.836 167.044C347.836 166.815 349.181 159.597 349.58 157.61ZM350.312 111.277H333.921L330.076 129.408H346.053C349.226 129.408 351.686 129.039 353.424 128.307C356.507 127.027 358.46 124.491 359.286 120.706C360.138 116.616 359.361 113.867 356.951 112.467C355.576 111.675 353.365 111.277 350.312 111.277Z" fill="#D6BA06"/>
<path d="M288.927 167.054L303.256 99.5665H317.266L310.408 133.183L288.927 167.054Z" fill="#D6BA06"/>
<path d="M208.912 125.916L219.944 128.71C224.765 129.931 228.261 131.564 230.427 133.607C233.784 136.78 234.82 141.377 233.54 147.389C232.23 153.555 228.779 158.676 223.196 162.75C217.613 166.825 210.516 168.862 201.909 168.862C193.303 168.862 186.634 166.855 182.45 162.84C178.267 158.825 176.927 153.311 178.421 146.288H191.878C191.664 149.371 192.018 151.678 192.929 153.202C194.638 155.981 198.269 157.371 203.827 157.371C207.154 157.371 209.928 157.002 212.159 156.27C216.402 154.865 218.918 152.255 219.714 148.44C220.203 146.213 219.59 144.49 217.882 143.265C216.203 142.074 213.364 141.023 209.365 140.107L202.542 138.503C195.858 136.914 191.371 135.191 189.085 133.328C185.21 130.215 183.974 125.348 185.374 118.723C186.654 112.682 189.921 107.661 195.171 103.661C200.42 99.6613 207.303 97.6639 215.82 97.6639C222.932 97.6639 228.595 99.5517 232.803 103.317C237.017 107.088 238.481 112.557 237.196 119.73H223.644C224.287 115.67 223.141 112.786 220.213 111.078C218.26 109.947 215.65 109.384 212.383 109.384C208.752 109.384 205.689 110.116 203.204 111.581C200.714 113.045 199.2 115.092 198.647 117.717C198.129 120.128 198.816 121.931 200.709 123.122C201.899 123.914 204.629 124.845 208.902 125.916H208.912Z" fill="#D6BA06"/>
<path d="M419.915 154.721L417.36 166.81H366.41L380.689 99.5665H430L427.445 111.471H391.865L388.857 125.752H421.519L419.008 137.432H386.346L382.696 154.721H419.92H419.915Z" fill="#D6BA06"/>
<path d="M112.04 94.1273L179.496 102.884L108.863 111.645L80.2599 182.281L91.3515 111.645L20.7183 102.884L94.5241 94.1273L119.929 23.4871L112.04 94.1273Z" fill="#D6BA06"/>
<path d="M116.966 84.6486L158.777 79.4634L118.181 74.2832L116.966 84.6486Z" fill="#D6BA06"/>
<path d="M66.8235 112.477L59.542 158.86L77.7756 113.837L66.8235 112.477Z" fill="#D6BA06"/>
<path d="M69.8263 93.3501L86.8895 91.3229L88.1495 88.2197L93.1599 87.5971L99.1017 71.5982L91.3222 70.7016L99.2112 0.0664062L73.8059 70.7016L0 79.4632L70.6332 88.2197L69.8263 93.3501Z" fill="#D6BA06"/>
</svg>
