<svg width="1316" height="211" viewBox="0 0 1316 211" fill="none" xmlns="http://www.w3.org/2000/svg">
<path d="M248.127 205.343L287.454 17.951H325.892L307.07 111.293L248.127 205.343Z" fill="#D6BA06"/>
<path d="M413.152 205.343L365.417 72.2374L337.529 205.343H301.472L340.798 17.951H381.378L427.609 148.763L455.122 17.951H491.179L451.852 205.343H413.152Z" fill="#D6BA06"/>
<path d="M518.514 142.674L505.447 205.353H467.384L506.711 17.9615H544.773L528.562 95.1315L616.25 17.9615H666.252L574.166 95.1315L630.822 205.353H581.07L540.992 123.48L518.503 142.674H518.514Z" fill="#D6BA06"/>
<path d="M938.299 32.1463C947.261 41.8071 949.643 56.7633 945.465 77.0256C940.775 99.1482 931.938 114.781 918.954 123.934C905.971 133.088 889.216 137.664 868.702 137.664H829.376L815.306 205.047H776.867L816.194 17.6552H896.852C915.445 17.6552 929.264 22.4855 938.309 32.1463H938.299ZM883.775 50.1995H847.718L836.154 105.374H872.211C881.341 105.374 888.924 103.133 894.951 98.6408C900.978 94.1487 904.999 87.0352 907.015 77.2793C909.104 67.534 908.039 60.579 903.808 56.4357C899.578 52.2818 892.893 50.2101 883.775 50.2101V50.1995Z" fill="#D6BA06"/>
<path d="M1095.3 178.95L1098.7 161.531C1101.04 149.576 1100.56 141.617 1097.26 137.633C1093.94 133.648 1086.6 131.661 1075.21 131.661H1035.25L1019.93 205.142H982.117L1021.44 17.7501H1112.28C1125.18 18.0038 1134.81 19.6104 1141.17 22.5805C1147.53 25.5506 1152.55 29.9159 1156.24 35.6765C1159.26 40.4223 1161.33 45.6755 1162.45 51.436C1163.58 57.1966 1163.39 63.771 1161.89 71.1381C1159.96 80.0379 1155.88 88.7896 1149.64 97.3934C1143.4 105.997 1134.8 112.075 1123.82 115.637C1131.61 119.114 1136.61 124.05 1138.83 130.445C1141.04 136.85 1140.77 146.617 1138.01 159.745L1135.37 172.333C1133.62 180.895 1128.78 204.497 1128.78 204.497L1090.51 205.131C1090.51 204.497 1094.19 184.457 1095.29 178.939L1095.3 178.95ZM1097.32 50.2945H1052.34L1041.79 100.638H1085.64C1094.35 100.638 1101.09 99.6236 1105.86 97.5837C1114.32 94.0217 1119.68 86.9928 1121.95 76.4758C1124.29 65.1239 1122.16 57.4925 1115.55 53.5923C1111.77 51.3937 1105.71 50.2839 1097.33 50.2839L1097.32 50.2945Z" fill="#D6BA06"/>
<path d="M928.856 205.174L968.183 17.7819H1006.62L987.799 111.124L928.856 205.174Z" fill="#D6BA06"/>
<path d="M709.276 90.9459L739.556 98.7041C752.791 102.097 762.379 106.631 768.323 112.307C777.535 121.123 780.387 133.88 776.867 150.57C773.264 167.693 763.8 181.909 748.477 193.219C733.153 204.529 713.673 210.194 690.057 210.194C666.44 210.194 648.14 204.624 636.66 193.473C625.181 182.332 621.504 167.006 625.609 147.515H662.543C661.958 156.077 662.919 162.472 665.437 166.71C670.127 174.426 680.092 178.284 695.342 178.284C704.471 178.284 712.096 177.269 718.206 175.229C729.842 171.329 736.757 164.089 738.94 153.487C740.277 147.304 738.606 142.516 733.916 139.123C729.31 135.815 721.517 132.897 710.55 130.35L691.832 125.9C673.49 121.493 661.175 116.704 654.898 111.536C644.264 102.89 640.87 89.371 644.724 70.9796C648.244 54.1948 657.206 40.2533 671.61 29.155C686.014 18.0567 704.899 12.497 728.265 12.497C747.777 12.497 763.319 17.7291 774.872 28.1931C786.435 38.6572 790.446 53.8566 786.937 73.77H749.751C751.506 62.5026 748.372 54.4908 740.33 49.7449C734.971 46.6057 727.806 45.0414 718.844 45.0414C708.879 45.0414 700.481 47.0708 693.65 51.1401C686.818 55.2095 682.661 60.8855 681.146 68.1786C679.726 74.8799 681.606 79.8688 686.798 83.1771C690.067 85.3862 697.556 87.9652 709.286 90.9354L709.276 90.9459Z" fill="#D6BA06"/>
<path d="M1288.33 170.938L1281.32 204.508H1141.5L1180.68 17.7925H1316L1308.99 50.8548H1211.35L1203.09 90.502H1292.72L1285.83 122.93H1196.2L1186.19 170.938H1288.33Z" fill="#D6BA06"/>
<path d="M123.878 106.134L198.46 115.93L120.364 125.732L88.7396 204.753L101.003 125.732L22.9072 115.93L104.511 106.134L132.6 27.1075L123.878 106.134Z" fill="#D6BA06"/>
<path d="M129.323 95.5299L175.552 89.7292L130.667 83.934L129.323 95.5299Z" fill="#D6BA06"/>
<path d="M73.8826 126.662L65.8318 178.552L85.9916 128.184L73.8826 126.662Z" fill="#D6BA06"/>
<path d="M77.2033 105.265L96.0693 102.997L97.4624 99.5253L103.002 98.8287L109.572 80.9305L100.97 79.9275L109.693 0.906616L81.6033 79.9275L0 89.7292L78.0955 99.5253L77.2033 105.265Z" fill="#D6BA06"/>
</svg>
